<?xml version="1.0" encoding="UTF-8" standalone="no"?>
<!DOCTYPE svg PUBLIC "-//W3C//DTD SVG 1.1//EN"
 "http://www.w3.org/Graphics/SVG/1.1/DTD/svg11.dtd">
<!-- Generated by graphviz version 2.47.0 (20210316.0004)
 -->
<!-- Title: dependencies Pages: 1 -->
<svg width="1080pt" height="284pt"
 viewBox="0.00 0.00 1080.00 284.00" xmlns="http://www.w3.org/2000/svg" xmlns:xlink="http://www.w3.org/1999/xlink">
<g id="graph0" class="graph" transform="scale(1 1) rotate(0) translate(4 280)">
<title>dependencies</title>
<polygon fill="white" stroke="transparent" points="-4,4 -4,-280 1076,-280 1076,4 -4,4"/>
<text text-anchor="start" x="515.01" y="-42.4" font-family="Times-12" font-weight="bold" font-size="14.00">Legend</text>
<polygon fill="#ffffb3" stroke="transparent" points="302,-10 302,-30 322,-30 322,-10 302,-10"/>
<text text-anchor="start" x="325.63" y="-15.4" font-family="Times-12" font-size="14.00"> &#160;Declarations</text>
<polygon fill="#8dd3c7" stroke="transparent" points="415,-10 415,-30 435,-30 435,-10 415,-10"/>
<text text-anchor="start" x="438.73" y="-15.4" font-family="Times-12" font-size="14.00"> &#160;Module</text>
<polygon fill="#80b1d3" stroke="transparent" points="501,-10 501,-30 521,-30 521,-10 501,-10"/>
<text text-anchor="start" x="524.78" y="-15.4" font-family="Times-12" font-size="14.00"> &#160;Bootstrap</text>
<polygon fill="#fdb462" stroke="transparent" points="598,-10 598,-30 618,-30 618,-10 598,-10"/>
<text text-anchor="start" x="621.67" y="-15.4" font-family="Times-12" font-size="14.00"> &#160;Providers</text>
<polygon fill="#fb8072" stroke="transparent" points="694,-10 694,-30 714,-30 714,-10 694,-10"/>
<text text-anchor="start" x="717.73" y="-15.4" font-family="Times-12" font-size="14.00"> &#160;Exports</text>
<g id="clust1" class="cluster">
<title>cluster_AppModule</title>
<polygon fill="none" stroke="black" stroke-dasharray="1,5" points="8,-70 8,-268 1064,-268 1064,-70 8,-70"/>
</g>
<g id="clust2" class="cluster">
<title>cluster_AppModule_declarations</title>
<polygon fill="none" stroke="black" points="168,-78 168,-130 1056,-130 1056,-78 168,-78"/>
</g>
<g id="clust9" class="cluster">
<title>cluster_AppModule_imports</title>
<polygon fill="none" stroke="black" points="16,-78 16,-130 160,-130 160,-78 16,-78"/>
</g>
<g id="clust11" class="cluster">
<title>cluster_AppModule_bootstrap</title>
<polygon fill="none" stroke="black" points="475,-208 475,-260 599,-260 599,-208 475,-208"/>
</g>
<!-- AppComponent -->
<g id="node1" class="node">
<title>AppComponent</title>
<polygon fill="#ffffb3" stroke="black" points="1047.94,-122 942.06,-122 942.06,-86 1047.94,-86 1047.94,-122"/>
<text text-anchor="middle" x="995" y="-99.8" font-family="Times,serif" font-size="14.00">AppComponent</text>
</g>
<!-- AppModule -->
<g id="node7" class="node">
<title>AppModule</title>
<polygon fill="#8dd3c7" stroke="black" points="578.66,-187 575.66,-191 554.66,-191 551.66,-187 495.34,-187 495.34,-151 578.66,-151 578.66,-187"/>
<text text-anchor="middle" x="537" y="-164.8" font-family="Times,serif" font-size="14.00">AppModule</text>
</g>
<!-- AppComponent&#45;&gt;AppModule -->
<g id="edge1" class="edge">
<title>AppComponent&#45;&gt;AppModule</title>
<path fill="none" stroke="black" d="M995,-122.29C995,-144.21 995,-178 995,-178 995,-178 588.86,-178 588.86,-178"/>
<polygon fill="black" stroke="black" points="588.86,-174.5 578.86,-178 588.86,-181.5 588.86,-174.5"/>
</g>
<!-- BuscarImagenComponent -->
<g id="node2" class="node">
<title>BuscarImagenComponent</title>
<polygon fill="#ffffb3" stroke="black" points="924.18,-122 761.82,-122 761.82,-86 924.18,-86 924.18,-122"/>
<text text-anchor="middle" x="843" y="-99.8" font-family="Times,serif" font-size="14.00">BuscarImagenComponent</text>
</g>
<!-- BuscarImagenComponent&#45;&gt;AppModule -->
<g id="edge2" class="edge">
<title>BuscarImagenComponent&#45;&gt;AppModule</title>
<path fill="none" stroke="black" d="M843,-122.11C843,-141.34 843,-169 843,-169 843,-169 588.91,-169 588.91,-169"/>
<polygon fill="black" stroke="black" points="588.91,-165.5 578.91,-169 588.91,-172.5 588.91,-165.5"/>
</g>
<!-- ErrorComponent -->
<g id="node3" class="node">
<title>ErrorComponent</title>
<polygon fill="#ffffb3" stroke="black" points="743.37,-122 632.63,-122 632.63,-86 743.37,-86 743.37,-122"/>
<text text-anchor="middle" x="688" y="-99.8" font-family="Times,serif" font-size="14.00">ErrorComponent</text>
</g>
<!-- ErrorComponent&#45;&gt;AppModule -->
<g id="edge3" class="edge">
<title>ErrorComponent&#45;&gt;AppModule</title>
<path fill="none" stroke="black" d="M688,-122.03C688,-138.4 688,-160 688,-160 688,-160 588.66,-160 588.66,-160"/>
<polygon fill="black" stroke="black" points="588.66,-156.5 578.66,-160 588.66,-163.5 588.66,-156.5"/>
</g>
<!-- ListarImagenComponent -->
<g id="node4" class="node">
<title>ListarImagenComponent</title>
<polygon fill="#ffffb3" stroke="black" points="614.97,-122 459.03,-122 459.03,-86 614.97,-86 614.97,-122"/>
<text text-anchor="middle" x="537" y="-99.8" font-family="Times,serif" font-size="14.00">ListarImagenComponent</text>
</g>
<!-- ListarImagenComponent&#45;&gt;AppModule -->
<g id="edge4" class="edge">
<title>ListarImagenComponent&#45;&gt;AppModule</title>
<path fill="none" stroke="black" d="M537,-122.11C537,-122.11 537,-140.99 537,-140.99"/>
<polygon fill="black" stroke="black" points="533.5,-140.99 537,-150.99 540.5,-140.99 533.5,-140.99"/>
</g>
<!-- NavbarComponent -->
<g id="node5" class="node">
<title>NavbarComponent</title>
<polygon fill="#ffffb3" stroke="black" points="441.03,-122 318.97,-122 318.97,-86 441.03,-86 441.03,-122"/>
<text text-anchor="middle" x="380" y="-99.8" font-family="Times,serif" font-size="14.00">NavbarComponent</text>
</g>
<!-- NavbarComponent&#45;&gt;AppModule -->
<g id="edge5" class="edge">
<title>NavbarComponent&#45;&gt;AppModule</title>
<path fill="none" stroke="black" d="M380,-122.03C380,-138.4 380,-160 380,-160 380,-160 485.34,-160 485.34,-160"/>
<polygon fill="black" stroke="black" points="485.34,-163.5 495.34,-160 485.34,-156.5 485.34,-163.5"/>
</g>
<!-- SpinnerComponent -->
<g id="node6" class="node">
<title>SpinnerComponent</title>
<polygon fill="#ffffb3" stroke="black" points="300.38,-122 175.62,-122 175.62,-86 300.38,-86 300.38,-122"/>
<text text-anchor="middle" x="238" y="-99.8" font-family="Times,serif" font-size="14.00">SpinnerComponent</text>
</g>
<!-- SpinnerComponent&#45;&gt;AppModule -->
<g id="edge6" class="edge">
<title>SpinnerComponent&#45;&gt;AppModule</title>
<path fill="none" stroke="black" d="M238,-122.11C238,-141.34 238,-169 238,-169 238,-169 485.11,-169 485.11,-169"/>
<polygon fill="black" stroke="black" points="485.11,-172.5 495.11,-169 485.11,-165.5 485.11,-172.5"/>
</g>
<!-- AppComponent  -->
<g id="node9" class="node">
<title>AppComponent </title>
<polygon fill="#80b1d3" stroke="black" points="591.44,-252 482.56,-252 482.56,-216 591.44,-216 591.44,-252"/>
<text text-anchor="middle" x="537" y="-229.8" font-family="Times,serif" font-size="14.00">AppComponent </text>
</g>
<!-- AppModule&#45;&gt;AppComponent  -->
<g id="edge8" class="edge">
<title>AppModule&#45;&gt;AppComponent </title>
<path fill="none" stroke="black" stroke-dasharray="1,5" d="M537,-187.11C537,-187.11 537,-205.99 537,-205.99"/>
<polygon fill="black" stroke="black" points="533.5,-205.99 537,-215.99 540.5,-205.99 533.5,-205.99"/>
</g>
<!-- AppRoutingModule -->
<g id="node8" class="node">
<title>AppRoutingModule</title>
<polygon fill="#8dd3c7" stroke="black" points="152.27,-122 149.27,-126 128.27,-126 125.27,-122 23.73,-122 23.73,-86 152.27,-86 152.27,-122"/>
<text text-anchor="middle" x="88" y="-99.8" font-family="Times,serif" font-size="14.00">AppRoutingModule</text>
</g>
<!-- AppRoutingModule&#45;&gt;AppModule -->
<g id="edge7" class="edge">
<title>AppRoutingModule&#45;&gt;AppModule</title>
<path fill="none" stroke="black" d="M88,-122.29C88,-144.21 88,-178 88,-178 88,-178 485.16,-178 485.16,-178"/>
<polygon fill="black" stroke="black" points="485.16,-181.5 495.16,-178 485.16,-174.5 485.16,-181.5"/>
</g>
</g>
</svg>
